<svg width="1280" height="360" viewBox="0 0 1280 360" fill="none" xmlns="http://www.w3.org/2000/svg" role="img" aria-labelledby="title desc">
  <title id="title">Artifact Field logo</title>
  <desc id="desc">Artifact Field wordmark with artifact tiles converging into one shared context point.</desc>
  <rect width="1280" height="360" fill="#181825"/>
  <path d="M0 72H1280M0 144H1280M0 216H1280M0 288H1280M128 0V360M256 0V360M384 0V360M512 0V360M640 0V360M768 0V360M896 0V360M1024 0V360M1152 0V360" stroke="white" stroke-opacity="0.045"/>
  <image href="./mark.svg" x="72" y="52" width="256" height="256"/>
  <g transform="translate(392 85)">
    <text x="0" y="88" fill="#F0F0F5" font-family="'DM Sans', Inter, ui-sans-serif, system-ui, -apple-system, BlinkMacSystemFont, 'Segoe UI', sans-serif" font-size="78" font-weight="700" letter-spacing="0">Artifact Field</text>
    <text x="4" y="143" fill="#A0A0B2" font-family="'DM Sans', Inter, ui-sans-serif, system-ui, -apple-system, BlinkMacSystemFont, 'Segoe UI', sans-serif" font-size="28" font-weight="500" letter-spacing="0">all artifacts, one shared context</text>
    <path d="M4 174H610" stroke="#9AE9EE" stroke-opacity="0.18"/>
    <circle cx="18" cy="210" r="5" fill="#6E95F6"/>
    <text x="34" y="219" fill="#A0A0B2" font-family="'DM Sans', Inter, ui-sans-serif, system-ui, -apple-system, BlinkMacSystemFont, 'Segoe UI', sans-serif" font-size="18" font-weight="500">research files</text>
    <circle cx="190" cy="210" r="5" fill="#2CC8B9"/>
    <text x="206" y="219" fill="#A0A0B2" font-family="'DM Sans', Inter, ui-sans-serif, system-ui, -apple-system, BlinkMacSystemFont, 'Segoe UI', sans-serif" font-size="18" font-weight="500">agent outputs</text>
    <circle cx="370" cy="210" r="5" fill="#E8952D"/>
    <text x="386" y="219" fill="#A0A0B2" font-family="'DM Sans', Inter, ui-sans-serif, system-ui, -apple-system, BlinkMacSystemFont, 'Segoe UI', sans-serif" font-size="18" font-weight="500">reviewable continuity</text>
  </g>
</svg>
