<svg width="1200" height="360" viewBox="0 0 1200 360" fill="none" xmlns="http://www.w3.org/2000/svg" role="img" aria-labelledby="title desc">
  <title id="title">Locusly logo</title>
  <desc id="desc">Locusly wordmark with the L-shaped locus brand mark.</desc>
  <defs>
    <radialGradient id="logoBgGlow" cx="0" cy="0" r="1" gradientUnits="userSpaceOnUse" gradientTransform="translate(870 12) rotate(148) scale(548 312)">
      <stop stop-color="#6E95F6" stop-opacity="0.22"/>
      <stop offset="0.5" stop-color="#2CC8B9" stop-opacity="0.08"/>
      <stop offset="1" stop-color="#181825" stop-opacity="0"/>
    </radialGradient>
  </defs>
  <rect width="1200" height="360" rx="0" fill="#181825"/>
  <rect width="1200" height="360" rx="0" fill="url(#logoBgGlow)"/>
  <path opacity="0.32" d="M0 72H1200M0 144H1200M0 216H1200M0 288H1200M120 0V360M240 0V360M360 0V360M480 0V360M600 0V360M720 0V360M840 0V360M960 0V360M1080 0V360" stroke="white" stroke-opacity="0.045"/>
  <image href="./mark.svg" x="72" y="52" width="256" height="256"/>
  <g transform="translate(392 91)">
    <text x="0" y="90" fill="#F0F0F5" font-family="'DM Sans', Inter, ui-sans-serif, system-ui, -apple-system, BlinkMacSystemFont, 'Segoe UI', sans-serif" font-size="92" font-weight="700" letter-spacing="0">Locusly</text>
    <text x="4" y="146" fill="#A0A0B2" font-family="'DM Sans', Inter, ui-sans-serif, system-ui, -apple-system, BlinkMacSystemFont, 'Segoe UI', sans-serif" font-size="28" font-weight="500" letter-spacing="0">all in one, shared in context</text>
    <path d="M4 176H566" stroke="#9AE9EE" stroke-opacity="0.18"/>
    <circle cx="18" cy="210" r="5" fill="#6E95F6"/>
    <text x="34" y="219" fill="#A0A0B2" font-family="'DM Sans', Inter, ui-sans-serif, system-ui, -apple-system, BlinkMacSystemFont, 'Segoe UI', sans-serif" font-size="18" font-weight="500">L-shaped locus</text>
    <circle cx="218" cy="210" r="5" fill="#2CC8B9"/>
    <text x="234" y="219" fill="#A0A0B2" font-family="'DM Sans', Inter, ui-sans-serif, system-ui, -apple-system, BlinkMacSystemFont, 'Segoe UI', sans-serif" font-size="18" font-weight="500">shared context</text>
    <circle cx="398" cy="210" r="5" fill="#E8952D"/>
    <text x="414" y="219" fill="#A0A0B2" font-family="'DM Sans', Inter, ui-sans-serif, system-ui, -apple-system, BlinkMacSystemFont, 'Segoe UI', sans-serif" font-size="18" font-weight="500">artifact orbit</text>
  </g>
</svg>
