<svg width="364" height="364" viewBox="0 0 364 364" fill="none" xmlns="http://www.w3.org/2000/svg">
<g clip-path="url(#clip0_1091_2474)">
<circle cx="182" cy="182" r="137" stroke="black" stroke-width="90"/>
<path d="M189.559 118C204.785 118.025 219.381 124.088 230.148 134.86C240.915 145.631 246.975 160.233 247 175.466C246.995 176.446 246.733 177.408 246.238 178.254C245.744 179.1 245.035 179.801 244.184 180.286C243.32 180.767 242.345 181.013 241.357 181C240.369 180.987 239.401 180.715 238.551 180.212L225.58 172.426C224.322 171.66 223.416 170.43 223.055 169.002C222.695 167.573 222.91 166.06 223.653 164.789C224.026 164.159 224.52 163.609 225.106 163.171C225.693 162.733 226.36 162.416 227.069 162.237C227.779 162.057 228.517 162.02 229.24 162.127C229.964 162.235 230.66 162.484 231.287 162.861L234.622 164.863C232.219 154.685 226.457 145.615 218.268 139.117C210.078 132.619 199.938 129.072 189.485 129.048C188.764 129.05 188.05 128.91 187.384 128.635C186.717 128.36 186.112 127.956 185.602 127.446C185.092 126.936 184.688 126.33 184.414 125.663C184.139 124.997 183.998 124.282 184 123.561C184.01 122.089 184.599 120.68 185.639 119.64C186.679 118.599 188.088 118.01 189.559 118Z" fill="#292D32"/>
<path d="M199.405 210.573C200.414 210.529 201.446 210.812 202.22 211.415L202.371 211.54L202.384 211.551L202.396 211.562C204.077 213.244 204.305 215.917 202.572 217.659L192.786 227.953L192.778 227.962L192.424 227.608L192.777 227.962C192.027 228.712 190.893 229.289 189.725 229.289C188.618 229.289 187.454 228.922 186.659 227.949L181.935 222.888V222.887C180.224 221.162 180.416 218.326 182.115 216.793C183.844 215.064 186.701 215.259 188.235 216.977H188.236L189.898 218.777L196.449 211.908C197.229 211.039 198.33 210.62 199.405 210.573Z" fill="#111928" stroke="black"/>
<path d="M175.213 147.129L175.543 147.134C178.721 147.223 181.585 148.598 183.747 150.719L184.185 151.17L184.191 151.177L200.554 169.563C202.499 171.686 203.554 174.509 203.554 177.495V194.716C213.02 198.915 219.415 208.457 219.415 219.341C219.415 234.296 207.211 246.5 192.255 246.5C184.426 246.5 177.274 243.129 172.296 237.726H128.474C121.959 237.726 116.5 232.444 116.5 225.752V177.326C116.5 174.515 117.55 171.525 119.495 169.4L135.693 151.177C137.987 148.534 141.332 147.129 144.672 147.129H175.213ZM192.255 200.773C181.91 200.773 173.689 209.315 173.688 219.509C173.688 229.697 181.904 238.076 192.255 238.076C202.6 238.076 210.821 229.534 210.821 219.341C210.821 209.152 202.606 200.773 192.255 200.773ZM125.093 225.921C125.093 227.838 126.556 229.301 128.474 229.302H167.049C165.858 226.215 165.264 222.848 165.264 219.341C165.264 204.385 177.468 192.18 192.424 192.18C193.247 192.18 194.221 192.18 195.13 192.278V178.838H125.093V225.921ZM164.239 170.245H189.619L177.708 156.904L177.699 156.894L177.69 156.884C177.111 156.16 176.243 155.721 175.213 155.721H164.239V170.245ZM144.672 155.721C143.798 155.722 142.766 156.169 142.194 156.884L142.186 156.894L142.177 156.904L130.266 170.245H155.646V155.721H144.672Z" fill="#111928" stroke="black"/>
</g>
<defs>
<clipPath id="clip0_1091_2474">
<rect width="364" height="364" fill="white"/>
</clipPath>
</defs>
</svg>
